<svg xmlns="http://www.w3.org/2000/svg" width="128" height="128" viewBox="0 0 88 102">
  <g fill="none" fill-rule="evenodd" stroke="#01a982" stroke-width="4" transform="translate(2 2)">
    <path stroke-linecap="round" stroke-linejoin="round" d="M0,24.5 L0,73.5 L42,98 L84,73.5 L84,24.5 L42,0 L0,24.5 Z M0,24.5 L21,36.75 L0,24.5 Z M84,24.5 L63,36.75 L84,24.5 Z M42,73.5 L42,98 L42,73.5 Z M42,24.5 L42,49 L42,24.5 Z M42,24.5 L21,36.75 L21,61.25 L42,73.5 L63,61.25 L63,36.75 L42,24.5 Z M42,49 L63,61.25 M21,61.25 L42,49"/>
    <circle cx="42" cy="49" r="4"/>
    <line x1="42" y1="97" x2="42" y2="73" stroke-width="4"/>
  </g>
</svg>